<?xml version="1.0" encoding="utf-8"?>
<!-- Generator: Adobe Illustrator 28.0.0, SVG Export Plug-In . SVG Version: 6.00 Build 0)  -->
<svg version="1.1" id="_x30_" xmlns="http://www.w3.org/2000/svg" xmlns:xlink="http://www.w3.org/1999/xlink" x="0px" y="0px"
	 viewBox="0 0 792 612" enable-background="new 0 0 792 612" xml:space="preserve">
<g id="ARC_00000106132130272767788460000007896649155907230904_">
	<path fill="none" stroke="#000000" stroke-linecap="round" stroke-linejoin="round" stroke-miterlimit="10" d="M359.7,202.5
		c-10,6.5-18.1,15.5-23.6,26.1c-1.8,3.5-0.4,7.9,3.1,9.7s7.9,0.4,9.7-3.1c4.3-8.4,10.7-15.4,18.6-20.5c3.3-2.2,4.3-6.6,2.1-10
		S363,200.4,359.7,202.5C359.7,202.5,359.7,202.5,359.7,202.5z"/>
</g>
<g id="CIRCLE">
	
		<circle fill="none" stroke="#000000" stroke-linecap="round" stroke-linejoin="round" stroke-miterlimit="10" cx="396.5" cy="214.6" r="7.2"/>
</g>
<g id="LWPOLYLINE">
	<path fill="none" stroke="#000000" stroke-linecap="round" stroke-linejoin="round" stroke-miterlimit="10" d="M336.1,268.2
		c-1.8,3.5-0.4,7.9,3.1,9.7s7.9,0.4,9.7-3.1c4.3-8.4,10.7-15.4,18.6-20.5c3.3-2.2,4.3-6.6,2.1-10s-6.6-4.3-10-2.1
		C349.6,248.6,341.5,257.6,336.1,268.2z"/>
</g>
<g id="CIRCLE_00000123435515831451383270000007549530368892939670_">
	
		<circle fill="none" stroke="#000000" stroke-linecap="round" stroke-linejoin="round" stroke-miterlimit="10" cx="396.5" cy="297.1" r="7.2"/>
</g>
<g id="ARC_00000029761328448346380070000013064383412443067067_">
	<path fill="none" stroke="#000000" stroke-linecap="round" stroke-linejoin="round" stroke-miterlimit="10" d="M389.3,339.9
		c0,4,3.2,7.2,7.2,7.2s7.2-3.2,7.2-7.2c0,0,0-13,0-13c0-4-3.2-7.2-7.2-7.2s-7.2,3.2-7.2,7.2C389.3,326.8,389.3,339.9,389.3,339.9z"
		/>
</g>
<g id="LWPOLYLINE_00000164513806964412820590000004287360291300054710_">
	<path fill="none" stroke="#000000" stroke-linecap="round" stroke-linejoin="round" stroke-miterlimit="10" d="M389.3,379.5
		c0,4,3.2,7.2,7.2,7.2s7.2-3.2,7.2-7.2v-16.6c0-4-3.2-7.2-7.2-7.2s-7.2,3.2-7.2,7.2V379.5z"/>
</g>
<g id="LWPOLYLINE_00000107588073642416983450000003880318344821558957_">
	<path fill="none" stroke="#000000" stroke-linecap="round" stroke-linejoin="round" stroke-miterlimit="10" d="M445.7,401.4
		c3.8-1.3,5.7-5.4,4.4-9.2c-1.3-3.8-5.4-5.7-9.2-4.4c-28.8,10-60.1,10-88.9,0c-3.8-1.3-7.9,0.7-9.2,4.4c-1.3,3.8,0.7,7.9,4.4,9.2
		C379.2,412.4,413.8,412.4,445.7,401.4z"/>
</g>
<g id="ARC_00000128480557249326544300000017355981070618872249_">
	<path fill="none" stroke="#000000" stroke-linecap="round" stroke-linejoin="round" stroke-miterlimit="10" d="M425.5,214.6
		C425.5,214.6,425.5,214.6,425.5,214.6c-3.3-2.2-4.3-6.6-2.1-10s6.6-4.3,10-2.1c10,6.5,18.1,15.5,23.6,26.1c1.8,3.5,0.4,7.9-3.1,9.7
		s-7.9,0.4-9.7-3.1C439.8,226.8,433.4,219.7,425.5,214.6z"/>
</g>
<g id="LWPOLYLINE_00000151537180932229955930000000771138363963454376_">
	<path fill="none" stroke="#000000" stroke-linecap="round" stroke-linejoin="round" stroke-miterlimit="10" d="M444.1,274.7
		c-4.3-8.4-10.7-15.4-18.6-20.5c-3.3-2.2-4.3-6.6-2.1-10s6.6-4.3,10-2.1c10,6.5,18.1,15.5,23.6,26.1c1.8,3.5,0.4,7.9-3.1,9.7
		S445.9,278.3,444.1,274.7z"/>
</g>
</svg>
